<svg width="170" height="190" viewBox="0 0 170 190" fill="none" xmlns="http://www.w3.org/2000/svg">
<mask id="path-1-inside-1_125_513" fill="white">
<path fill-rule="evenodd" clip-rule="evenodd" d="M93.3152 190H59.5924H58.2065V189.975C25.9347 188.801 0 146.729 0 95C0 43.2714 25.9347 1.1992 58.2065 0.0251844V0H59.5924H93.3152H95.163V0.0270396C136.661 1.24274 170 43.2981 170 95C170 146.702 136.661 188.757 95.163 189.973V190H93.3152Z"/>
</mask>
<path fill-rule="evenodd" clip-rule="evenodd" d="M93.3152 190H59.5924H58.2065V189.975C25.9347 188.801 0 146.729 0 95C0 43.2714 25.9347 1.1992 58.2065 0.0251844V0H59.5924H93.3152H95.163V0.0270396C136.661 1.24274 170 43.2981 170 95C170 146.702 136.661 188.757 95.163 189.973V190H93.3152Z" fill="#BC5E5E"/>
<path d="M58.2065 190H46.2065V202H58.2065V190ZM58.2065 189.975H70.2065V178.403L58.6428 177.983L58.2065 189.975ZM58.2065 0.0251844L58.6428 12.0173L70.2065 11.5966V0.0251844H58.2065ZM58.2065 0V-12H46.2065V0H58.2065ZM95.163 0H107.163V-12H95.163V0ZM95.163 0.0270396H83.163V11.6806L94.8116 12.0219L95.163 0.0270396ZM95.163 189.973L94.8116 177.978L83.163 178.319V189.973H95.163ZM95.163 190V202H107.163V190H95.163ZM93.3152 178H59.5924V202H93.3152V178ZM59.5924 178H58.2065V202H59.5924V178ZM70.2065 190V189.975H46.2065V190H70.2065ZM58.6428 177.983C47.9567 177.594 36.5272 170.314 27.2277 155.167C18.0358 140.195 12 118.988 12 95H-12C-12 122.741 -5.06842 148.434 6.77492 167.724C18.5107 186.839 36.1845 201.182 57.7703 201.967L58.6428 177.983ZM12 95C12 71.0119 18.0358 49.8048 27.2277 34.8332C36.5272 19.6864 47.9567 12.406 58.6428 12.0173L57.7703 -11.9669C36.1845 -11.1816 18.5107 3.16109 6.77492 22.276C-5.06842 41.5662 -12 67.2594 -12 95H12ZM70.2065 0.0251844V0H46.2065V0.0251844H70.2065ZM58.2065 12H59.5924V-12H58.2065V12ZM59.5924 12H93.3152V-12H59.5924V12ZM93.3152 12H95.163V-12H93.3152V12ZM83.163 0V0.0270396H107.163V0H83.163ZM94.8116 12.0219C127.662 12.9842 158 47.3865 158 95H182C182 39.2098 145.661 -10.4988 95.5144 -11.9678L94.8116 12.0219ZM158 95C158 142.614 127.662 177.016 94.8116 177.978L95.5144 201.968C145.661 200.499 182 150.79 182 95H158ZM83.163 189.973V190H107.163V189.973H83.163ZM95.163 178H93.3152V202H95.163V178Z" fill="#421A1A" mask="url(#path-1-inside-1_125_513)"/>
<mask id="path-3-inside-2_125_513" fill="white">
<path fill-rule="evenodd" clip-rule="evenodd" d="M98 147H88V146.943C87.8343 146.981 87.6676 147 87.5 147C81.701 147 77 123.943 77 95.5C77 67.0573 81.701 44 87.5 44C87.6676 44 87.8343 44.0193 88 44.0574V44H98C108.493 44 117 67.0573 117 95.5C117 123.943 108.493 147 98 147Z"/>
</mask>
<path fill-rule="evenodd" clip-rule="evenodd" d="M98 147H88V146.943C87.8343 146.981 87.6676 147 87.5 147C81.701 147 77 123.943 77 95.5C77 67.0573 81.701 44 87.5 44C87.6676 44 87.8343 44.0193 88 44.0574V44H98C108.493 44 117 67.0573 117 95.5C117 123.943 108.493 147 98 147Z" fill="#421A1A"/>
<path d="M88 147H83V152H88V147ZM88 146.943H93V140.662L86.8795 142.07L88 146.943ZM88 44.0574L86.8795 48.9302L93 50.3375V44.0574H88ZM88 44V39H83V44H88ZM98 142H88V152H98V142ZM93 147V146.943H83V147H93ZM86.8795 142.07C87.0719 142.026 87.281 142 87.5 142V152C88.0542 152 88.5967 151.936 89.1205 151.815L86.8795 142.07ZM87.5 142C88.5578 142 89.0488 142.548 88.9259 142.425C88.7906 142.289 88.4199 141.825 87.917 140.782C86.922 138.718 85.8905 135.409 84.9746 130.917C83.1595 122.015 82 109.49 82 95.5H72C72 109.952 73.191 123.178 75.1762 132.915C76.1604 137.742 77.3915 141.976 78.9089 145.124C79.6621 146.687 80.6101 148.247 81.8419 149.483C83.086 150.731 84.9924 152 87.5 152V142ZM82 95.5C82 81.5097 83.1595 68.9852 84.9746 60.0829C85.8905 55.5905 86.922 52.2824 87.917 50.2182C88.4199 49.1748 88.7906 48.7112 88.9259 48.5754C89.0488 48.452 88.5578 49 87.5 49V39C84.9924 39 83.086 40.2686 81.8419 41.5172C80.6101 42.7535 79.6621 44.3134 78.9089 45.876C77.3915 49.024 76.1604 53.2578 75.1762 58.0851C73.191 67.8221 72 81.0476 72 95.5H82ZM87.5 49C87.281 49 87.072 48.9745 86.8795 48.9302L89.1205 39.1845C88.5966 39.0641 88.0542 39 87.5 39V49ZM93 44.0574V44H83V44.0574H93ZM88 49H98V39H88V49ZM98 49C98.6472 49 99.8875 49.3388 101.628 51.3338C103.358 53.3177 105.144 56.4776 106.744 60.8146C109.93 69.4495 112 81.7117 112 95.5H122C122 80.8456 119.817 67.3579 116.126 57.3534C114.288 52.3707 111.979 47.9886 109.164 44.7605C106.358 41.5434 102.6 39 98 39V49ZM112 95.5C112 109.288 109.93 121.551 106.744 130.185C105.144 134.522 103.358 137.682 101.628 139.666C99.8875 141.661 98.6472 142 98 142V152C102.6 152 106.358 149.457 109.164 146.24C111.979 143.011 114.288 138.629 116.126 133.647C119.817 123.642 122 110.154 122 95.5H112Z" fill="#421A1A" mask="url(#path-3-inside-2_125_513)"/>
<path d="M57.4393 29.5684C54.3543 25.9408 46.7375 27.3507 40.4267 32.7176C34.1159 38.0844 31.5009 45.3759 34.586 49.0035C37.671 52.6311 37.094 41.1594 43.4047 35.7925C49.7155 30.4256 60.5243 33.196 57.4393 29.5684Z" fill="white"/>
</svg>
