<svg width="176" height="190" viewBox="0 0 176 190" fill="none" xmlns="http://www.w3.org/2000/svg">
<mask id="path-1-inside-1_125_1293" fill="white">
<path fill-rule="evenodd" clip-rule="evenodd" d="M0 34.5C0 15.4462 15.4462 0 34.5 0C43.967 0 52.5434 3.81313 58.7771 9.9873L58.8235 9.94766L59.4435 10.6657C60.2505 11.51 61.015 12.3951 61.7336 13.3177L107 65.7383V35.4947C107 16.4409 122.446 0.994764 141.5 0.994764C160.554 0.994764 176 16.4409 176 35.4948V155.5C176 174.554 160.554 190 141.5 190C129.71 190 119.301 184.086 113.079 175.063L69 124.017V154.505C69 173.559 53.5538 189.005 34.5 189.005C15.4462 189.005 0 173.559 0 154.505V34.5Z"/>
</mask>
<path fill-rule="evenodd" clip-rule="evenodd" d="M0 34.5C0 15.4462 15.4462 0 34.5 0C43.967 0 52.5434 3.81313 58.7771 9.9873L58.8235 9.94766L59.4435 10.6657C60.2505 11.51 61.015 12.3951 61.7336 13.3177L107 65.7383V35.4947C107 16.4409 122.446 0.994764 141.5 0.994764C160.554 0.994764 176 16.4409 176 35.4948V155.5C176 174.554 160.554 190 141.5 190C129.71 190 119.301 184.086 113.079 175.063L69 124.017V154.505C69 173.559 53.5538 189.005 34.5 189.005C15.4462 189.005 0 173.559 0 154.505V34.5Z" fill="#688ACD"/>
<path d="M58.7771 9.9873L50.3326 18.5132L58.1779 26.2836L66.5727 19.1103L58.7771 9.9873ZM58.8235 9.94766L67.9059 2.1048L60.1037 -6.9305L51.0279 0.824654L58.8235 9.94766ZM59.4435 10.6657L50.3612 18.5086L50.5593 18.738L50.7687 18.9571L59.4435 10.6657ZM61.7336 13.3177L52.2666 20.6917L52.453 20.931L52.6512 21.1606L61.7336 13.3177ZM107 65.7383L97.9176 73.5812L119 97.9956V65.7383H107ZM113.079 175.063L122.957 168.25L122.587 167.713L122.161 167.22L113.079 175.063ZM69 124.017L78.0824 116.175L57 91.7602V124.017H69ZM34.5 -12C8.81877 -12 -12 8.81873 -12 34.5H12C12 22.0736 22.0736 12 34.5 12V-12ZM67.2216 1.4614C58.8323 -6.84771 47.2562 -12 34.5 -12V12C40.6778 12 46.2544 14.474 50.3326 18.5132L67.2216 1.4614ZM66.5727 19.1103L66.619 19.0707L51.0279 0.824654L50.9815 0.864294L66.5727 19.1103ZM49.7411 17.7905L50.3612 18.5086L68.5259 2.82285L67.9059 2.1048L49.7411 17.7905ZM71.2006 5.94374C70.2331 4.70165 69.2042 3.51035 68.1184 2.37431L50.7687 18.9571C51.2968 19.5096 51.7968 20.0886 52.2666 20.6917L71.2006 5.94374ZM52.6512 21.1606L97.9176 73.5812L116.082 57.8955L70.816 5.47489L52.6512 21.1606ZM95 35.4947V65.7383H119V35.4947H95ZM141.5 -11.0052C115.819 -11.0052 95 9.81349 95 35.4947H119C119 23.0683 129.074 12.9948 141.5 12.9948V-11.0052ZM188 35.4948C188 9.81353 167.181 -11.0052 141.5 -11.0052V12.9948C153.926 12.9948 164 23.0684 164 35.4948H188ZM188 155.5V35.4948H164V155.5H188ZM141.5 202C167.181 202 188 181.181 188 155.5H164C164 167.926 153.926 178 141.5 178V202ZM103.2 181.875C111.566 194.007 125.599 202 141.5 202V178C133.821 178 127.036 174.164 122.957 168.25L103.2 181.875ZM122.161 167.22L78.0824 116.175L59.9176 131.86L103.996 182.905L122.161 167.22ZM81 154.505V124.017H57V154.505H81ZM34.5 201.005C60.1812 201.005 81 180.187 81 154.505H57C57 166.932 46.9264 177.005 34.5 177.005V201.005ZM-12 154.505C-12 180.186 8.81876 201.005 34.5 201.005V177.005C22.0736 177.005 12 166.932 12 154.505H-12ZM-12 34.5V154.505H12V34.5H-12Z" fill="#222F46" mask="url(#path-1-inside-1_125_1293)"/>
<circle cx="142" cy="33" r="5" fill="white"/>
<path d="M44.4393 26.5684C41.3543 22.9408 33.7375 24.3507 27.4267 29.7176C21.1159 35.0844 18.5009 42.3759 21.586 46.0035C24.671 49.6311 24.094 38.1594 30.4047 32.7925C36.7155 27.4256 47.5243 30.196 44.4393 26.5684Z" fill="white"/>
</svg>
