<svg width="159" height="190" viewBox="0 0 159 190" fill="none" xmlns="http://www.w3.org/2000/svg">
<mask id="path-1-inside-1_125_198" fill="white">
<path fill-rule="evenodd" clip-rule="evenodd" d="M24 0C10.7452 0 0 10.7452 0 24V166C0 179.255 10.7452 190 24 190H86.5H92V189.731C129.471 186.048 159 145.042 159 95C159 44.9575 129.471 3.95224 92 0.269272V0H86.5H24Z"/>
</mask>
<path fill-rule="evenodd" clip-rule="evenodd" d="M24 0C10.7452 0 0 10.7452 0 24V166C0 179.255 10.7452 190 24 190H86.5H92V189.731C129.471 186.048 159 145.042 159 95C159 44.9575 129.471 3.95224 92 0.269272V0H86.5H24Z" fill="#81B867"/>
<path d="M92 190V202H104V190H92ZM92 189.731L90.8262 177.788L80 178.852V189.731H92ZM92 0.269272H80V11.1476L90.8262 12.2117L92 0.269272ZM92 0H104V-12H92V0ZM12 24C12 17.3726 17.3726 12 24 12V-12C4.11775 -12 -12 4.11774 -12 24H12ZM12 166V24H-12V166H12ZM24 178C17.3726 178 12 172.627 12 166H-12C-12 185.882 4.11775 202 24 202V178ZM86.5 178H24V202H86.5V178ZM92 178H86.5V202H92V178ZM80 189.731V190H104V189.731H80ZM147 95C147 141.584 119.785 174.942 90.8262 177.788L93.1738 201.673C139.158 197.153 171 148.501 171 95H147ZM90.8262 12.2117C119.785 15.058 147 48.4164 147 95H171C171 41.4986 139.158 -7.15348 93.1738 -11.6732L90.8262 12.2117ZM80 0V0.269272H104V0H80ZM86.5 12H92V-12H86.5V12ZM24 12H86.5V-12H24V12Z" fill="#172E14" mask="url(#path-1-inside-1_125_198)"/>
<mask id="path-3-inside-2_125_198" fill="white">
<path fill-rule="evenodd" clip-rule="evenodd" d="M88 147H78V146.943C77.8343 146.981 77.6676 147 77.5 147C71.701 147 67 123.943 67 95.5C67 67.0573 71.701 44 77.5 44C77.6676 44 77.8343 44.0193 78 44.0574V44H88C98.4934 44 107 67.0573 107 95.5C107 123.943 98.4934 147 88 147Z"/>
</mask>
<path fill-rule="evenodd" clip-rule="evenodd" d="M88 147H78V146.943C77.8343 146.981 77.6676 147 77.5 147C71.701 147 67 123.943 67 95.5C67 67.0573 71.701 44 77.5 44C77.6676 44 77.8343 44.0193 78 44.0574V44H88C98.4934 44 107 67.0573 107 95.5C107 123.943 98.4934 147 88 147Z" fill="#172E14"/>
<path d="M78 147H73V152H78V147ZM78 146.943H83V140.662L76.8795 142.07L78 146.943ZM78 44.0574L76.8795 48.9302L83 50.3375V44.0574H78ZM78 44V39H73V44H78ZM88 142H78V152H88V142ZM83 147V146.943H73V147H83ZM76.8795 142.07C77.0719 142.026 77.281 142 77.5 142V152C78.0542 152 78.5967 151.936 79.1205 151.815L76.8795 142.07ZM77.5 142C78.5578 142 79.0488 142.548 78.9259 142.425C78.7906 142.289 78.4199 141.825 77.917 140.782C76.922 138.718 75.8905 135.409 74.9746 130.917C73.1595 122.015 72 109.49 72 95.5H62C62 109.952 63.191 123.178 65.1762 132.915C66.1604 137.742 67.3915 141.976 68.9089 145.124C69.6621 146.687 70.6101 148.247 71.8419 149.483C73.086 150.731 74.9924 152 77.5 152V142ZM72 95.5C72 81.5097 73.1595 68.9852 74.9746 60.0829C75.8905 55.5905 76.922 52.2824 77.917 50.2182C78.4199 49.1748 78.7906 48.7112 78.9259 48.5754C79.0488 48.452 78.5578 49 77.5 49V39C74.9924 39 73.086 40.2686 71.8419 41.5172C70.6101 42.7535 69.6621 44.3134 68.9089 45.876C67.3915 49.024 66.1604 53.2578 65.1762 58.0851C63.191 67.8221 62 81.0476 62 95.5H72ZM77.5 49C77.281 49 77.072 48.9745 76.8795 48.9302L79.1205 39.1845C78.5966 39.0641 78.0542 39 77.5 39V49ZM83 44.0574V44H73V44.0574H83ZM78 49H88V39H78V49ZM88 49C88.6472 49 89.8875 49.3388 91.6276 51.3338C93.3581 53.3177 95.144 56.4776 96.7441 60.8146C99.9298 69.4495 102 81.7117 102 95.5H112C112 80.8456 109.817 67.3579 106.126 57.3534C104.288 52.3707 101.979 47.9886 99.1637 44.7605C96.3576 41.5434 92.5995 39 88 39V49ZM102 95.5C102 109.288 99.9298 121.551 96.7441 130.185C95.144 134.522 93.3581 137.682 91.6276 139.666C89.8875 141.661 88.6472 142 88 142V152C92.5995 152 96.3576 149.457 99.1637 146.24C101.979 143.011 104.288 138.629 106.126 133.647C109.817 123.642 112 110.154 112 95.5H102Z" fill="#172E14" mask="url(#path-3-inside-2_125_198)"/>
<path d="M48.4393 24.5684C45.3543 20.9408 37.7375 22.3507 31.4267 27.7176C25.1159 33.0844 22.5009 40.3759 25.586 44.0035C28.671 47.6311 28.094 36.1594 34.4047 30.7925C40.7155 25.4256 51.5243 28.196 48.4393 24.5684Z" fill="white"/>
</svg>
