<svg width="145" height="190" viewBox="0 0 145 190" fill="none" xmlns="http://www.w3.org/2000/svg">
<mask id="path-1-inside-1_125_622" fill="white">
<path fill-rule="evenodd" clip-rule="evenodd" d="M35 0C15.67 0 0 15.67 0 35V155C0 174.33 15.67 190 35 190H37.7441C38.6491 190 39.546 189.966 40.4337 189.898L110.829 189.294C129.882 189.13 145.18 173.552 144.998 154.499C144.817 135.446 129.223 120.133 110.17 120.296L72.7441 120.618V35C72.7441 15.67 57.0741 0 37.7441 0H35Z"/>
</mask>
<path fill-rule="evenodd" clip-rule="evenodd" d="M35 0C15.67 0 0 15.67 0 35V155C0 174.33 15.67 190 35 190H37.7441C38.6491 190 39.546 189.966 40.4337 189.898L110.829 189.294C129.882 189.13 145.18 173.552 144.998 154.499C144.817 135.446 129.223 120.133 110.17 120.296L72.7441 120.618V35C72.7441 15.67 57.0741 0 37.7441 0H35Z" fill="#81B867"/>
<path d="M40.4337 189.898L40.3306 177.899L39.9269 177.902L39.5244 177.933L40.4337 189.898ZM110.829 189.294L110.726 177.294L110.829 189.294ZM144.998 154.499L156.998 154.384L144.998 154.499ZM110.17 120.296L110.067 108.297L110.17 120.296ZM72.7441 120.618H60.7441V132.721L72.8472 132.617L72.7441 120.618ZM12 35C12 22.2975 22.2975 12 35 12V-12C9.04262 -12 -12 9.04262 -12 35H12ZM12 155V35H-12V155H12ZM35 178C22.2975 178 12 167.703 12 155H-12C-12 180.957 9.04262 202 35 202V178ZM37.7441 178H35V202H37.7441V178ZM39.5244 177.933C38.9389 177.977 38.3453 178 37.7441 178V202C38.9529 202 40.1531 201.954 41.343 201.864L39.5244 177.933ZM110.726 177.294L40.3306 177.899L40.5368 201.898L110.932 201.293L110.726 177.294ZM132.999 154.613C133.118 167.035 123.147 177.187 110.726 177.294L110.932 201.293C136.617 201.072 157.243 180.069 156.998 154.384L132.999 154.613ZM110.273 132.296C122.704 132.189 132.88 142.183 132.999 154.613L156.998 154.384C156.753 128.708 135.743 108.076 110.067 108.297L110.273 132.296ZM72.8472 132.617L110.273 132.296L110.067 108.297L72.6411 108.618L72.8472 132.617ZM60.7441 35V120.618H84.7441V35H60.7441ZM37.7441 12C50.4467 12 60.7441 22.2975 60.7441 35H84.7441C84.7441 9.04262 63.7015 -12 37.7441 -12V12ZM35 12H37.7441V-12H35V12Z" fill="#172E14" mask="url(#path-1-inside-1_125_622)"/>
<path d="M45.4393 24.5684C42.3543 20.9408 34.7375 22.3507 28.4267 27.7176C22.1159 33.0844 19.5009 40.3759 22.586 44.0035C25.671 47.6311 25.094 36.1594 31.4047 30.7925C37.7155 25.4256 48.5243 28.196 45.4393 24.5684Z" fill="white"/>
</svg>
