<svg width="172" height="190" viewBox="0 0 172 190" fill="none" xmlns="http://www.w3.org/2000/svg">
<mask id="path-1-inside-1_125_956" fill="white">
<path fill-rule="evenodd" clip-rule="evenodd" d="M93.3373 1.02508C76.4571 -3.07376 58.4978 5.75129 51.7435 22.2041L2.68075 141.716C-4.66021 159.597 4.01459 179.718 22.0564 186.656L23.8395 187.342C41.8814 194.28 62.4582 185.409 69.7992 167.527L85.5217 129.228L101.355 167.796C108.696 185.678 129.273 194.549 147.314 187.611L149.097 186.925C167.139 179.987 175.814 159.866 168.473 141.985L119.41 22.4732C114.733 11.0796 104.682 3.34392 93.3373 1.02508Z"/>
</mask>
<path fill-rule="evenodd" clip-rule="evenodd" d="M93.3373 1.02508C76.4571 -3.07376 58.4978 5.75129 51.7435 22.2041L2.68075 141.716C-4.66021 159.597 4.01459 179.718 22.0564 186.656L23.8395 187.342C41.8814 194.28 62.4582 185.409 69.7992 167.527L85.5217 129.228L101.355 167.796C108.696 185.678 129.273 194.549 147.314 187.611L149.097 186.925C167.139 179.987 175.814 159.866 168.473 141.985L119.41 22.4732C114.733 11.0796 104.682 3.34392 93.3373 1.02508Z" fill="#EDCA6F"/>
<path d="M51.7435 22.2041L40.6425 17.6468L51.7435 22.2041ZM93.3374 1.02511L90.5058 12.6862L90.7192 12.7381L90.9343 12.782L93.3374 1.02511ZM2.68075 141.716L-8.42022 137.158L2.68075 141.716ZM22.0564 186.656L26.3637 175.456L26.3637 175.456L22.0564 186.656ZM23.8395 187.342L19.5323 198.542L19.5323 198.542L23.8395 187.342ZM69.7992 167.527L58.6982 162.97L69.7992 167.527ZM85.5217 129.228L96.6227 124.671L85.5217 97.6304L74.4208 124.671L85.5217 129.228ZM101.355 167.796L112.456 163.239L101.355 167.796ZM147.314 187.611L143.007 176.411L143.007 176.411L147.314 187.611ZM149.097 186.925L153.405 198.126L153.405 198.126L149.097 186.925ZM168.473 141.985L179.574 137.427L168.473 141.985ZM119.41 22.4732L108.309 27.0304V27.0305L119.41 22.4732ZM62.8445 26.7613C67.3087 15.8869 79.2879 9.96228 90.5058 12.6862L96.169 -10.636C73.6265 -16.1099 49.687 -4.38442 40.6425 17.6468L62.8445 26.7613ZM13.7817 146.273L62.8445 26.7613L40.6425 17.6468L-8.42022 137.158L13.7817 146.273ZM26.3637 175.456C14.6059 170.934 8.99765 157.926 13.7817 146.273L-8.42022 137.158C-18.3181 161.268 -6.57672 188.502 17.7492 197.857L26.3637 175.456ZM28.1468 176.142L26.3637 175.456L17.7492 197.856L19.5323 198.542L28.1468 176.142ZM58.6982 162.97C53.8344 174.817 40.1007 180.739 28.1468 176.142L19.5323 198.542C43.6621 207.822 71.0821 196 80.9002 172.084L58.6982 162.97ZM74.4208 124.671L58.6982 162.97L80.9002 172.084L96.6227 133.786L74.4208 124.671ZM74.4208 133.786L90.2538 172.353L112.456 163.239L96.6227 124.671L74.4208 133.786ZM90.2538 172.353C100.072 196.269 127.492 208.091 151.622 198.811L143.007 176.411C131.053 181.008 117.32 175.087 112.456 163.239L90.2538 172.353ZM151.622 198.811L153.405 198.126L144.79 175.725L143.007 176.411L151.622 198.811ZM153.405 198.126C177.731 188.771 189.472 161.538 179.574 137.427L157.372 146.542C162.156 158.195 156.548 171.203 144.79 175.725L153.405 198.126ZM179.574 137.427L130.511 17.9159L108.309 27.0305L157.372 146.542L179.574 137.427ZM130.511 17.916C124.234 2.62569 110.789 -7.65587 95.7405 -10.7318L90.9343 12.782C98.5752 14.3438 105.232 19.5335 108.309 27.0304L130.511 17.916Z" fill="#382B08" mask="url(#path-1-inside-1_125_956)"/>
<path d="M84.2531 73.1338C85.0158 71.7655 86.9842 71.7655 87.7469 73.1338L96.4666 88.7762C97.2098 90.1093 96.246 91.75 94.7197 91.75H77.2803C75.754 91.75 74.7902 90.1093 75.5334 88.7762L84.2531 73.1338Z" fill="#382B08"/>
<rect x="68" y="96" width="36" height="15" fill="#EDCA6F"/>
<path d="M90.4393 24.5684C87.3543 20.9408 79.7375 22.3507 73.4267 27.7176C67.1159 33.0844 64.5009 40.3759 67.586 44.0035C70.671 47.6311 70.094 36.1594 76.4047 30.7925C82.7155 25.4256 93.5243 28.196 90.4393 24.5684Z" fill="white"/>
</svg>
