<svg width="1285" height="199" viewBox="0 0 1285 199" fill="none" xmlns="http://www.w3.org/2000/svg">
<rect width="1285" height="199"/>
<g filter="url(#filter0_d_0_1)">
<mask id="path-1-inside-1_0_1" fill="white">
<path fill-rule="evenodd" clip-rule="evenodd" d="M28 1C14.7452 1 4 11.7452 4 25V167C4 180.255 14.7452 191 28 191H90.5H96V190.731C133.471 187.048 163 146.042 163 96C163 45.9575 133.471 4.95224 96 1.26927V1H90.5H28Z"/>
</mask>
<path fill-rule="evenodd" clip-rule="evenodd" d="M28 1C14.7452 1 4 11.7452 4 25V167C4 180.255 14.7452 191 28 191H90.5H96V190.731C133.471 187.048 163 146.042 163 96C163 45.9575 133.471 4.95224 96 1.26927V1H90.5H28Z" fill="#81B867"/>
<path d="M96 191V203H108V191H96ZM96 190.731L94.8262 178.788L84 179.852V190.731H96ZM96 1.26927H84V12.1476L94.8262 13.2117L96 1.26927ZM96 1H108V-11H96V1ZM16 25C16 18.3726 21.3726 13 28 13V-11C8.11775 -11 -8 5.11774 -8 25H16ZM16 167V25H-8V167H16ZM28 179C21.3726 179 16 173.627 16 167H-8C-8 186.882 8.11775 203 28 203V179ZM90.5 179H28V203H90.5V179ZM96 179H90.5V203H96V179ZM84 190.731V191H108V190.731H84ZM151 96C151 142.584 123.785 175.942 94.8262 178.788L97.1738 202.673C143.158 198.153 175 149.501 175 96H151ZM94.8262 13.2117C123.785 16.058 151 49.4164 151 96H175C175 42.4986 143.158 -6.15348 97.1738 -10.6732L94.8262 13.2117ZM84 1V1.26927H108V1H84ZM90.5 13H96V-11H90.5V13ZM28 13H90.5V-11H28V13Z" fill="#172E14" mask="url(#path-1-inside-1_0_1)"/>
<rect x="169" y="7" width="57" height="178" rx="28.5" fill="#EDCA6F" stroke="#382B08" stroke-width="12"/>
<mask id="path-4-inside-2_0_1" fill="white">
<path fill-rule="evenodd" clip-rule="evenodd" d="M868.337 2.02508C851.457 -2.07376 833.498 6.75129 826.744 23.2041L777.681 142.716C770.34 160.597 779.015 180.718 797.056 187.656L798.84 188.342C816.881 195.28 837.458 186.409 844.799 168.527L860.522 130.228L876.355 168.796C883.696 186.678 904.273 195.549 922.314 188.611L924.097 187.925C942.139 180.987 950.814 160.866 943.473 142.985L894.41 23.4732C889.733 12.0796 879.682 4.34392 868.337 2.02508Z"/>
</mask>
<path fill-rule="evenodd" clip-rule="evenodd" d="M868.337 2.02508C851.457 -2.07376 833.498 6.75129 826.744 23.2041L777.681 142.716C770.34 160.597 779.015 180.718 797.056 187.656L798.84 188.342C816.881 195.28 837.458 186.409 844.799 168.527L860.522 130.228L876.355 168.796C883.696 186.678 904.273 195.549 922.314 188.611L924.097 187.925C942.139 180.987 950.814 160.866 943.473 142.985L894.41 23.4732C889.733 12.0796 879.682 4.34392 868.337 2.02508Z" fill="#EDCA6F"/>
<path d="M826.744 23.2041L815.643 18.6468L826.744 23.2041ZM868.337 2.02511L865.506 13.6862L865.719 13.7381L865.934 13.782L868.337 2.02511ZM777.681 142.716L766.58 138.158L777.681 142.716ZM797.056 187.656L801.364 176.456L801.364 176.456L797.056 187.656ZM798.84 188.342L794.532 199.542L794.532 199.542L798.84 188.342ZM844.799 168.527L833.698 163.97L844.799 168.527ZM860.522 130.228L871.623 125.671L860.522 98.6304L849.421 125.671L860.522 130.228ZM876.355 168.796L887.456 164.239L876.355 168.796ZM922.314 188.611L918.007 177.411L918.007 177.411L922.314 188.611ZM924.097 187.925L928.405 199.126L928.405 199.126L924.097 187.925ZM943.473 142.985L954.574 138.427L943.473 142.985ZM894.41 23.4732L883.309 28.0304V28.0305L894.41 23.4732ZM837.844 27.7613C842.309 16.8869 854.288 10.9623 865.506 13.6862L871.169 -9.63603C848.626 -15.1099 824.687 -3.38442 815.643 18.6468L837.844 27.7613ZM788.782 147.273L837.844 27.7613L815.643 18.6468L766.58 138.158L788.782 147.273ZM801.364 176.456C789.606 171.934 783.998 158.926 788.782 147.273L766.58 138.158C756.682 162.268 768.423 189.502 792.749 198.857L801.364 176.456ZM803.147 177.142L801.364 176.456L792.749 198.856L794.532 199.542L803.147 177.142ZM833.698 163.97C828.834 175.817 815.101 181.739 803.147 177.142L794.532 199.542C818.662 208.822 846.082 197 855.9 173.084L833.698 163.97ZM849.421 125.671L833.698 163.97L855.9 173.084L871.623 134.786L849.421 125.671ZM849.421 134.786L865.254 173.353L887.456 164.239L871.623 125.671L849.421 134.786ZM865.254 173.353C875.072 197.269 902.492 209.091 926.622 199.811L918.007 177.411C906.053 182.008 892.32 176.087 887.456 164.239L865.254 173.353ZM926.622 199.811L928.405 199.126L919.79 176.725L918.007 177.411L926.622 199.811ZM928.405 199.126C952.731 189.771 964.472 162.538 954.574 138.427L932.372 147.542C937.156 159.195 931.548 172.203 919.79 176.725L928.405 199.126ZM954.574 138.427L905.511 18.9159L883.309 28.0305L932.372 147.542L954.574 138.427ZM905.511 18.916C899.234 3.62569 885.789 -6.65587 870.741 -9.73181L865.934 13.782C873.575 15.3438 880.232 20.5335 883.309 28.0304L905.511 18.916Z" fill="#382B08" mask="url(#path-4-inside-2_0_1)"/>
<mask id="path-6-inside-3_0_1" fill="white">
<path fill-rule="evenodd" clip-rule="evenodd" d="M665 1C645.67 1 630 16.67 630 36V156C630 175.33 645.67 191 665 191H667.744C668.649 191 669.546 190.966 670.434 190.898L740.829 190.294C759.882 190.13 775.18 174.552 774.998 155.499C774.817 136.446 759.223 121.133 740.17 121.296L702.744 121.618V36C702.744 16.67 687.074 1 667.744 1H665Z"/>
</mask>
<path fill-rule="evenodd" clip-rule="evenodd" d="M665 1C645.67 1 630 16.67 630 36V156C630 175.33 645.67 191 665 191H667.744C668.649 191 669.546 190.966 670.434 190.898L740.829 190.294C759.882 190.13 775.18 174.552 774.998 155.499C774.817 136.446 759.223 121.133 740.17 121.296L702.744 121.618V36C702.744 16.67 687.074 1 667.744 1H665Z" fill="#81B867"/>
<path d="M670.434 190.898L670.331 178.899L669.927 178.902L669.524 178.933L670.434 190.898ZM740.829 190.294L740.726 178.294L740.829 190.294ZM774.998 155.499L786.998 155.384L774.998 155.499ZM740.17 121.296L740.067 109.297L740.17 121.296ZM702.744 121.618H690.744V133.721L702.847 133.617L702.744 121.618ZM642 36C642 23.2975 652.297 13 665 13V-11C639.043 -11 618 10.0426 618 36H642ZM642 156V36H618V156H642ZM665 179C652.297 179 642 168.703 642 156H618C618 181.957 639.043 203 665 203V179ZM667.744 179H665V203H667.744V179ZM669.524 178.933C668.939 178.977 668.345 179 667.744 179V203C668.953 203 670.153 202.954 671.343 202.864L669.524 178.933ZM740.726 178.294L670.331 178.899L670.537 202.898L740.932 202.293L740.726 178.294ZM762.999 155.613C763.118 168.035 753.147 178.187 740.726 178.294L740.932 202.293C766.617 202.072 787.243 181.069 786.998 155.384L762.999 155.613ZM740.273 133.296C752.704 133.189 762.88 143.183 762.999 155.613L786.998 155.384C786.753 129.708 765.743 109.076 740.067 109.297L740.273 133.296ZM702.847 133.617L740.273 133.296L740.067 109.297L702.641 109.618L702.847 133.617ZM690.744 36V121.618H714.744V36H690.744ZM667.744 13C680.447 13 690.744 23.2975 690.744 36H714.744C714.744 10.0426 693.702 -11 667.744 -11V13ZM665 13H667.744V-11H665V13Z" fill="#172E14" mask="url(#path-6-inside-3_0_1)"/>
<mask id="path-8-inside-4_0_1" fill="white">
<path fill-rule="evenodd" clip-rule="evenodd" d="M232 34.5C232 15.4462 247.446 0 266.5 0C275.967 0 284.543 3.81313 290.777 9.9873L290.823 9.94766L291.444 10.6657C292.25 11.51 293.015 12.3951 293.734 13.3177L339 65.7383V35.4947C339 16.4409 354.446 0.994764 373.5 0.994764C392.554 0.994764 408 16.4409 408 35.4948V155.5C408 174.554 392.554 190 373.5 190C361.71 190 351.301 184.086 345.079 175.063L301 124.017V154.505C301 173.559 285.554 189.005 266.5 189.005C247.446 189.005 232 173.559 232 154.505V34.5Z"/>
</mask>
<path fill-rule="evenodd" clip-rule="evenodd" d="M232 34.5C232 15.4462 247.446 0 266.5 0C275.967 0 284.543 3.81313 290.777 9.9873L290.823 9.94766L291.444 10.6657C292.25 11.51 293.015 12.3951 293.734 13.3177L339 65.7383V35.4947C339 16.4409 354.446 0.994764 373.5 0.994764C392.554 0.994764 408 16.4409 408 35.4948V155.5C408 174.554 392.554 190 373.5 190C361.71 190 351.301 184.086 345.079 175.063L301 124.017V154.505C301 173.559 285.554 189.005 266.5 189.005C247.446 189.005 232 173.559 232 154.505V34.5Z" fill="#688ACD"/>
<path d="M290.777 9.9873L282.333 18.5132L290.178 26.2836L298.573 19.1103L290.777 9.9873ZM290.823 9.94766L299.906 2.1048L292.104 -6.9305L283.028 0.824654L290.823 9.94766ZM291.444 10.6657L282.361 18.5086L282.559 18.738L282.769 18.9571L291.444 10.6657ZM293.734 13.3177L284.267 20.6917L284.453 20.931L284.651 21.1606L293.734 13.3177ZM339 65.7383L329.918 73.5812L351 97.9956V65.7383H339ZM345.079 175.063L354.957 168.25L354.587 167.713L354.161 167.22L345.079 175.063ZM301 124.017L310.082 116.175L289 91.7602V124.017H301ZM266.5 -12C240.819 -12 220 8.81873 220 34.5H244C244 22.0736 254.074 12 266.5 12V-12ZM299.222 1.4614C290.832 -6.84771 279.256 -12 266.5 -12V12C272.678 12 278.254 14.474 282.333 18.5132L299.222 1.4614ZM298.573 19.1103L298.619 19.0707L283.028 0.824654L282.982 0.864294L298.573 19.1103ZM281.741 17.7905L282.361 18.5086L300.526 2.82285L299.906 2.1048L281.741 17.7905ZM303.201 5.94374C302.233 4.70165 301.204 3.51035 300.118 2.37431L282.769 18.9571C283.297 19.5096 283.797 20.0886 284.267 20.6917L303.201 5.94374ZM284.651 21.1606L329.918 73.5812L348.082 57.8955L302.816 5.47489L284.651 21.1606ZM327 35.4947V65.7383H351V35.4947H327ZM373.5 -11.0052C347.819 -11.0052 327 9.81349 327 35.4947H351C351 23.0683 361.074 12.9948 373.5 12.9948V-11.0052ZM420 35.4948C420 9.81353 399.181 -11.0052 373.5 -11.0052V12.9948C385.926 12.9948 396 23.0684 396 35.4948H420ZM420 155.5V35.4948H396V155.5H420ZM373.5 202C399.181 202 420 181.181 420 155.5H396C396 167.926 385.926 178 373.5 178V202ZM335.2 181.875C343.566 194.007 357.599 202 373.5 202V178C365.821 178 359.036 174.164 354.957 168.25L335.2 181.875ZM354.161 167.22L310.082 116.175L291.918 131.86L335.996 182.905L354.161 167.22ZM313 154.505V124.017H289V154.505H313ZM266.5 201.005C292.181 201.005 313 180.187 313 154.505H289C289 166.932 278.926 177.005 266.5 177.005V201.005ZM220 154.505C220 180.186 240.819 201.005 266.5 201.005V177.005C254.074 177.005 244 166.932 244 154.505H220ZM220 34.5V154.505H244V34.5H220Z" fill="#222F46" mask="url(#path-8-inside-4_0_1)"/>
<circle cx="374" cy="33" r="5" fill="white"/>
<mask id="path-11-inside-5_0_1" fill="white">
<path fill-rule="evenodd" clip-rule="evenodd" d="M946 34.5C946 15.4462 961.446 0 980.5 0C989.967 0 998.543 3.81313 1004.78 9.9873L1004.82 9.94766L1005.44 10.6657C1006.25 11.51 1007.01 12.3951 1007.73 13.3177L1053 65.7383V35.4947C1053 16.4409 1068.45 0.994764 1087.5 0.994764C1106.55 0.994764 1122 16.4409 1122 35.4948V155.5C1122 174.554 1106.55 190 1087.5 190C1075.71 190 1065.3 184.086 1059.08 175.063L1015 124.017V154.505C1015 173.559 999.554 189.005 980.5 189.005C961.446 189.005 946 173.559 946 154.505V34.5Z"/>
</mask>
<path fill-rule="evenodd" clip-rule="evenodd" d="M946 34.5C946 15.4462 961.446 0 980.5 0C989.967 0 998.543 3.81313 1004.78 9.9873L1004.82 9.94766L1005.44 10.6657C1006.25 11.51 1007.01 12.3951 1007.73 13.3177L1053 65.7383V35.4947C1053 16.4409 1068.45 0.994764 1087.5 0.994764C1106.55 0.994764 1122 16.4409 1122 35.4948V155.5C1122 174.554 1106.55 190 1087.5 190C1075.71 190 1065.3 184.086 1059.08 175.063L1015 124.017V154.505C1015 173.559 999.554 189.005 980.5 189.005C961.446 189.005 946 173.559 946 154.505V34.5Z" fill="#688ACD"/>
<path d="M1004.78 9.9873L996.333 18.5132L1004.18 26.2836L1012.57 19.1103L1004.78 9.9873ZM1004.82 9.94766L1013.91 2.1048L1006.1 -6.9305L997.028 0.824654L1004.82 9.94766ZM1005.44 10.6657L996.361 18.5086L996.559 18.738L996.769 18.9571L1005.44 10.6657ZM1007.73 13.3177L998.267 20.6917L998.453 20.931L998.651 21.1606L1007.73 13.3177ZM1053 65.7383L1043.92 73.5812L1065 97.9956V65.7383H1053ZM1059.08 175.063L1068.96 168.25L1068.59 167.713L1068.16 167.22L1059.08 175.063ZM1015 124.017L1024.08 116.175L1003 91.7602V124.017H1015ZM980.5 -12C954.819 -12 934 8.81873 934 34.5H958C958 22.0736 968.074 12 980.5 12V-12ZM1013.22 1.4614C1004.83 -6.84771 993.256 -12 980.5 -12V12C986.678 12 992.254 14.474 996.333 18.5132L1013.22 1.4614ZM1012.57 19.1103L1012.62 19.0707L997.028 0.824654L996.982 0.864294L1012.57 19.1103ZM995.741 17.7905L996.361 18.5086L1014.53 2.82285L1013.91 2.1048L995.741 17.7905ZM1017.2 5.94374C1016.23 4.70165 1015.2 3.51035 1014.12 2.37431L996.769 18.9571C997.297 19.5096 997.797 20.0886 998.267 20.6917L1017.2 5.94374ZM998.651 21.1606L1043.92 73.5812L1062.08 57.8955L1016.82 5.47489L998.651 21.1606ZM1041 35.4947V65.7383H1065V35.4947H1041ZM1087.5 -11.0052C1061.82 -11.0052 1041 9.81349 1041 35.4947H1065C1065 23.0683 1075.07 12.9948 1087.5 12.9948V-11.0052ZM1134 35.4948C1134 9.81353 1113.18 -11.0052 1087.5 -11.0052V12.9948C1099.93 12.9948 1110 23.0684 1110 35.4948H1134ZM1134 155.5V35.4948H1110V155.5H1134ZM1087.5 202C1113.18 202 1134 181.181 1134 155.5H1110C1110 167.926 1099.93 178 1087.5 178V202ZM1049.2 181.875C1057.57 194.007 1071.6 202 1087.5 202V178C1079.82 178 1073.04 174.164 1068.96 168.25L1049.2 181.875ZM1068.16 167.22L1024.08 116.175L1005.92 131.86L1050 182.905L1068.16 167.22ZM1027 154.505V124.017H1003V154.505H1027ZM980.5 201.005C1006.18 201.005 1027 180.187 1027 154.505H1003C1003 166.932 992.926 177.005 980.5 177.005V201.005ZM934 154.505C934 180.186 954.819 201.005 980.5 201.005V177.005C968.074 177.005 958 166.932 958 154.505H934ZM934 34.5V154.505H958V34.5H934Z" fill="#222F46" mask="url(#path-11-inside-5_0_1)"/>
<circle cx="1088" cy="33" r="5" fill="white"/>
<mask id="path-14-inside-6_0_1" fill="white">
<path fill-rule="evenodd" clip-rule="evenodd" d="M501.315 191H467.592H466.207V190.975C433.935 189.801 408 147.729 408 96C408 44.2714 433.935 2.1992 466.207 1.02518V1H467.592H501.315H503.163V1.02704C544.661 2.24274 578 44.2981 578 96C578 147.702 544.661 189.757 503.163 190.973V191H501.315Z"/>
</mask>
<path fill-rule="evenodd" clip-rule="evenodd" d="M501.315 191H467.592H466.207V190.975C433.935 189.801 408 147.729 408 96C408 44.2714 433.935 2.1992 466.207 1.02518V1H467.592H501.315H503.163V1.02704C544.661 2.24274 578 44.2981 578 96C578 147.702 544.661 189.757 503.163 190.973V191H501.315Z" fill="#BC5E5E"/>
<path d="M466.207 191H454.207V203H466.207V191ZM466.207 190.975H478.207V179.403L466.643 178.983L466.207 190.975ZM466.207 1.02518L466.643 13.0173L478.207 12.5966V1.02518H466.207ZM466.207 1V-11H454.207V1H466.207ZM503.163 1H515.163V-11H503.163V1ZM503.163 1.02704H491.163V12.6806L502.812 13.0219L503.163 1.02704ZM503.163 190.973L502.812 178.978L491.163 179.319V190.973H503.163ZM503.163 191V203H515.163V191H503.163ZM501.315 179H467.592V203H501.315V179ZM467.592 179H466.207V203H467.592V179ZM478.207 191V190.975H454.207V191H478.207ZM466.643 178.983C455.957 178.594 444.527 171.314 435.228 156.167C426.036 141.195 420 119.988 420 96H396C396 123.741 402.932 149.434 414.775 168.724C426.511 187.839 444.184 202.182 465.77 202.967L466.643 178.983ZM420 96C420 72.0119 426.036 50.8048 435.228 35.8332C444.527 20.6864 455.957 13.406 466.643 13.0173L465.77 -10.9669C444.184 -10.1816 426.511 4.16109 414.775 23.276C402.932 42.5662 396 68.2594 396 96H420ZM478.207 1.02518V1H454.207V1.02518H478.207ZM466.207 13H467.592V-11H466.207V13ZM467.592 13H501.315V-11H467.592V13ZM501.315 13H503.163V-11H501.315V13ZM491.163 1V1.02704H515.163V1H491.163ZM502.812 13.0219C535.662 13.9842 566 48.3865 566 96H590C590 40.2098 553.661 -9.49876 503.514 -10.9678L502.812 13.0219ZM566 96C566 143.614 535.662 178.016 502.812 178.978L503.514 202.968C553.661 201.499 590 151.79 590 96H566ZM491.163 190.973V191H515.163V190.973H491.163ZM503.163 179H501.315V203H503.163V179Z" fill="#421A1A" mask="url(#path-14-inside-6_0_1)"/>
<mask id="path-16-inside-7_0_1" fill="white">
<path fill-rule="evenodd" clip-rule="evenodd" d="M506 148H496V147.943C495.834 147.981 495.668 148 495.5 148C489.701 148 485 124.943 485 96.5C485 68.0573 489.701 45 495.5 45C495.668 45 495.834 45.0193 496 45.0574V45H506C516.493 45 525 68.0573 525 96.5C525 124.943 516.493 148 506 148Z"/>
</mask>
<path fill-rule="evenodd" clip-rule="evenodd" d="M506 148H496V147.943C495.834 147.981 495.668 148 495.5 148C489.701 148 485 124.943 485 96.5C485 68.0573 489.701 45 495.5 45C495.668 45 495.834 45.0193 496 45.0574V45H506C516.493 45 525 68.0573 525 96.5C525 124.943 516.493 148 506 148Z" fill="#421A1A"/>
<path d="M496 148H491V153H496V148ZM496 147.943H501V141.662L494.879 143.07L496 147.943ZM496 45.0574L494.88 49.9302L501 51.3375V45.0574H496ZM496 45V40H491V45H496ZM506 143H496V153H506V143ZM501 148V147.943H491V148H501ZM494.879 143.07C495.072 143.026 495.281 143 495.5 143V153C496.054 153 496.597 152.936 497.121 152.815L494.879 143.07ZM495.5 143C496.558 143 497.049 143.548 496.926 143.425C496.791 143.289 496.42 142.825 495.917 141.782C494.922 139.718 493.891 136.409 492.975 131.917C491.16 123.015 490 110.49 490 96.5H480C480 110.952 481.191 124.178 483.176 133.915C484.16 138.742 485.391 142.976 486.909 146.124C487.662 147.687 488.61 149.247 489.842 150.483C491.086 151.731 492.992 153 495.5 153V143ZM490 96.5C490 82.5097 491.16 69.9852 492.975 61.0829C493.891 56.5905 494.922 53.2824 495.917 51.2182C496.42 50.1748 496.791 49.7112 496.926 49.5754C497.049 49.452 496.558 50 495.5 50V40C492.992 40 491.086 41.2686 489.842 42.5172C488.61 43.7535 487.662 45.3134 486.909 46.876C485.391 50.024 484.16 54.2578 483.176 59.0851C481.191 68.8221 480 82.0476 480 96.5H490ZM495.5 50C495.281 50 495.072 49.9745 494.88 49.9302L497.12 40.1845C496.597 40.0641 496.054 40 495.5 40V50ZM501 45.0574V45H491V45.0574H501ZM496 50H506V40H496V50ZM506 50C506.647 50 507.887 50.3388 509.628 52.3338C511.358 54.3177 513.144 57.4776 514.744 61.8146C517.93 70.4495 520 82.7117 520 96.5H530C530 81.8456 527.817 68.3579 524.126 58.3534C522.288 53.3707 519.979 48.9886 517.164 45.7605C514.358 42.5434 510.6 40 506 40V50ZM520 96.5C520 110.288 517.93 122.551 514.744 131.185C513.144 135.522 511.358 138.682 509.628 140.666C507.887 142.661 506.647 143 506 143V153C510.6 153 514.358 150.457 517.164 147.24C519.979 144.011 522.288 139.629 524.126 134.647C527.817 124.642 530 111.154 530 96.5H520Z" fill="#421A1A" mask="url(#path-16-inside-7_0_1)"/>
<mask id="path-18-inside-8_0_1" fill="white">
<path fill-rule="evenodd" clip-rule="evenodd" d="M92 148H82V147.943C81.8343 147.981 81.6676 148 81.5 148C75.701 148 71 124.943 71 96.5C71 68.0573 75.701 45 81.5 45C81.6676 45 81.8343 45.0193 82 45.0574V45H92C102.493 45 111 68.0573 111 96.5C111 124.943 102.493 148 92 148Z"/>
</mask>
<path fill-rule="evenodd" clip-rule="evenodd" d="M92 148H82V147.943C81.8343 147.981 81.6676 148 81.5 148C75.701 148 71 124.943 71 96.5C71 68.0573 75.701 45 81.5 45C81.6676 45 81.8343 45.0193 82 45.0574V45H92C102.493 45 111 68.0573 111 96.5C111 124.943 102.493 148 92 148Z" fill="#172E14"/>
<path d="M82 148H77V153H82V148ZM82 147.943H87V141.662L80.8795 143.07L82 147.943ZM82 45.0574L80.8795 49.9302L87 51.3375V45.0574H82ZM82 45V40H77V45H82ZM92 143H82V153H92V143ZM87 148V147.943H77V148H87ZM80.8795 143.07C81.0719 143.026 81.281 143 81.5 143V153C82.0542 153 82.5967 152.936 83.1205 152.815L80.8795 143.07ZM81.5 143C82.5578 143 83.0488 143.548 82.9259 143.425C82.7906 143.289 82.4199 142.825 81.917 141.782C80.922 139.718 79.8905 136.409 78.9746 131.917C77.1595 123.015 76 110.49 76 96.5H66C66 110.952 67.191 124.178 69.1762 133.915C70.1604 138.742 71.3915 142.976 72.9089 146.124C73.6621 147.687 74.6101 149.247 75.8419 150.483C77.086 151.731 78.9924 153 81.5 153V143ZM76 96.5C76 82.5097 77.1595 69.9852 78.9746 61.0829C79.8905 56.5905 80.922 53.2824 81.917 51.2182C82.4199 50.1748 82.7906 49.7112 82.9259 49.5754C83.0488 49.452 82.5578 50 81.5 50V40C78.9924 40 77.086 41.2686 75.8419 42.5172C74.6101 43.7535 73.6621 45.3134 72.9089 46.876C71.3915 50.024 70.1604 54.2578 69.1762 59.0851C67.191 68.8221 66 82.0476 66 96.5H76ZM81.5 50C81.281 50 81.072 49.9745 80.8795 49.9302L83.1205 40.1845C82.5966 40.0641 82.0542 40 81.5 40V50ZM87 45.0574V45H77V45.0574H87ZM82 50H92V40H82V50ZM92 50C92.6472 50 93.8875 50.3388 95.6276 52.3338C97.3581 54.3177 99.144 57.4776 100.744 61.8146C103.93 70.4495 106 82.7117 106 96.5H116C116 81.8456 113.817 68.3579 110.126 58.3534C108.288 53.3707 105.979 48.9886 103.164 45.7605C100.358 42.5434 96.5995 40 92 40V50ZM106 96.5C106 110.288 103.93 122.551 100.744 131.185C99.144 135.522 97.3581 138.682 95.6276 140.666C93.8875 142.661 92.6472 143 92 143V153C96.5995 153 100.358 150.457 103.164 147.24C105.979 144.011 108.288 139.629 110.126 134.647C113.817 124.642 116 111.154 116 96.5H106Z" fill="#172E14" mask="url(#path-18-inside-8_0_1)"/>
<mask id="path-20-inside-9_0_1" fill="white">
<path fill-rule="evenodd" clip-rule="evenodd" d="M1146 0C1132.75 0 1122 10.7452 1122 24V166C1122 179.255 1132.75 190 1146 190H1208.5H1214V189.731C1251.47 186.048 1281 145.042 1281 95C1281 44.9575 1251.47 3.95224 1214 0.269272V0H1208.5H1146Z"/>
</mask>
<path fill-rule="evenodd" clip-rule="evenodd" d="M1146 0C1132.75 0 1122 10.7452 1122 24V166C1122 179.255 1132.75 190 1146 190H1208.5H1214V189.731C1251.47 186.048 1281 145.042 1281 95C1281 44.9575 1251.47 3.95224 1214 0.269272V0H1208.5H1146Z" fill="#BC5E5E"/>
<path d="M1214 190V202H1226V190H1214ZM1214 189.731L1212.83 177.788L1202 178.852V189.731H1214ZM1214 0.269272H1202V11.1476L1212.83 12.2117L1214 0.269272ZM1214 0H1226V-12H1214V0ZM1134 24C1134 17.3726 1139.37 12 1146 12V-12C1126.12 -12 1110 4.11774 1110 24H1134ZM1134 166V24H1110V166H1134ZM1146 178C1139.37 178 1134 172.627 1134 166H1110C1110 185.882 1126.12 202 1146 202V178ZM1208.5 178H1146V202H1208.5V178ZM1214 178H1208.5V202H1214V178ZM1202 189.731V190H1226V189.731H1202ZM1269 95C1269 141.584 1241.78 174.942 1212.83 177.788L1215.17 201.673C1261.16 197.153 1293 148.501 1293 95H1269ZM1212.83 12.2117C1241.78 15.058 1269 48.4164 1269 95H1293C1293 41.4986 1261.16 -7.15348 1215.17 -11.6732L1212.83 12.2117ZM1202 0V0.269272H1226V0H1202ZM1208.5 12H1214V-12H1208.5V12ZM1146 12H1208.5V-12H1146V12Z" fill="#421A1A" mask="url(#path-20-inside-9_0_1)"/>
<mask id="path-22-inside-10_0_1" fill="white">
<path fill-rule="evenodd" clip-rule="evenodd" d="M1210 147H1200V146.943C1199.83 146.981 1199.67 147 1199.5 147C1193.7 147 1189 123.943 1189 95.5C1189 67.0573 1193.7 44 1199.5 44C1199.67 44 1199.83 44.0193 1200 44.0574V44H1210C1220.49 44 1229 67.0573 1229 95.5C1229 123.943 1220.49 147 1210 147Z"/>
</mask>
<path fill-rule="evenodd" clip-rule="evenodd" d="M1210 147H1200V146.943C1199.83 146.981 1199.67 147 1199.5 147C1193.7 147 1189 123.943 1189 95.5C1189 67.0573 1193.7 44 1199.5 44C1199.67 44 1199.83 44.0193 1200 44.0574V44H1210C1220.49 44 1229 67.0573 1229 95.5C1229 123.943 1220.49 147 1210 147Z" fill="#421A1A"/>
<path d="M1200 147H1195V152H1200V147ZM1200 146.943H1205V140.662L1198.88 142.07L1200 146.943ZM1200 44.0574L1198.88 48.9302L1205 50.3375V44.0574H1200ZM1200 44V39H1195V44H1200ZM1210 142H1200V152H1210V142ZM1205 147V146.943H1195V147H1205ZM1198.88 142.07C1199.07 142.026 1199.28 142 1199.5 142V152C1200.05 152 1200.6 151.936 1201.12 151.815L1198.88 142.07ZM1199.5 142C1200.56 142 1201.05 142.548 1200.93 142.425C1200.79 142.289 1200.42 141.825 1199.92 140.782C1198.92 138.718 1197.89 135.409 1196.97 130.917C1195.16 122.015 1194 109.49 1194 95.5H1184C1184 109.952 1185.19 123.178 1187.18 132.915C1188.16 137.742 1189.39 141.976 1190.91 145.124C1191.66 146.687 1192.61 148.247 1193.84 149.483C1195.09 150.731 1196.99 152 1199.5 152V142ZM1194 95.5C1194 81.5097 1195.16 68.9852 1196.97 60.0829C1197.89 55.5905 1198.92 52.2824 1199.92 50.2182C1200.42 49.1748 1200.79 48.7112 1200.93 48.5754C1201.05 48.452 1200.56 49 1199.5 49V39C1196.99 39 1195.09 40.2686 1193.84 41.5172C1192.61 42.7535 1191.66 44.3134 1190.91 45.876C1189.39 49.024 1188.16 53.2578 1187.18 58.0851C1185.19 67.8221 1184 81.0476 1184 95.5H1194ZM1199.5 49C1199.28 49 1199.07 48.9745 1198.88 48.9302L1201.12 39.1845C1200.6 39.0641 1200.05 39 1199.5 39V49ZM1205 44.0574V44H1195V44.0574H1205ZM1200 49H1210V39H1200V49ZM1210 49C1210.65 49 1211.89 49.3388 1213.63 51.3338C1215.36 53.3177 1217.14 56.4776 1218.74 60.8146C1221.93 69.4495 1224 81.7117 1224 95.5H1234C1234 80.8456 1231.82 67.3579 1228.13 57.3534C1226.29 52.3707 1223.98 47.9886 1221.16 44.7605C1218.36 41.5434 1214.6 39 1210 39V49ZM1224 95.5C1224 109.288 1221.93 121.551 1218.74 130.185C1217.14 134.522 1215.36 137.682 1213.63 139.666C1211.89 141.661 1210.65 142 1210 142V152C1214.6 152 1218.36 149.457 1221.16 146.24C1223.98 143.011 1226.29 138.629 1228.13 133.647C1231.82 123.642 1234 110.154 1234 95.5H1224Z" fill="#421A1A" mask="url(#path-22-inside-10_0_1)"/>
<path d="M859.253 74.1338C860.016 72.7655 861.984 72.7655 862.747 74.1338L871.467 89.7762C872.21 91.1093 871.246 92.75 869.72 92.75H852.28C850.754 92.75 849.79 91.1093 850.533 89.7762L859.253 74.1338Z" fill="#382B08"/>
<rect x="843" y="97" width="36" height="15" fill="#EDCA6F"/>
<path d="M675.439 25.5684C672.354 21.9408 664.737 23.3507 658.427 28.7176C652.116 34.0844 649.501 41.3759 652.586 45.0035C655.671 48.6311 655.094 37.1594 661.405 31.7925C667.716 26.4256 678.524 29.196 675.439 25.5684Z" fill="white"/>
<path d="M1170.44 24.5684C1167.35 20.9408 1159.74 22.3507 1153.43 27.7176C1147.12 33.0844 1144.5 40.3759 1147.59 44.0035C1150.67 47.6311 1150.09 36.1594 1156.4 30.7925C1162.72 25.4256 1173.52 28.196 1170.44 24.5684Z" fill="white"/>
<path d="M990.439 26.5684C987.354 22.9408 979.737 24.3507 973.427 29.7176C967.116 35.0844 964.501 42.3759 967.586 46.0035C970.671 49.6311 970.094 38.1594 976.405 32.7925C982.716 27.4256 993.524 30.196 990.439 26.5684Z" fill="white"/>
<path d="M865.439 25.5684C862.354 21.9408 854.737 23.3507 848.427 28.7176C842.116 34.0844 839.501 41.3759 842.586 45.0035C845.671 48.6311 845.094 37.1594 851.405 31.7925C857.716 26.4256 868.524 29.196 865.439 25.5684Z" fill="white"/>
<path d="M275.439 24.5684C272.354 20.9408 264.737 22.3507 258.427 27.7176C252.116 33.0844 249.501 40.3759 252.586 44.0035C255.671 47.6311 255.094 36.1594 261.405 30.7925C267.716 25.4256 278.524 28.196 275.439 24.5684Z" fill="white"/>
<path d="M204.439 26.5684C201.354 22.9408 193.737 24.3507 187.427 29.7176C181.116 35.0844 178.501 42.3759 181.586 46.0035C184.671 49.6311 184.094 38.1594 190.405 32.7925C196.716 27.4256 207.524 30.196 204.439 26.5684Z" fill="white"/>
<path d="M52.4393 25.5684C49.3543 21.9408 41.7375 23.3507 35.4267 28.7176C29.1159 34.0844 26.5009 41.3759 29.586 45.0035C32.671 48.6311 32.094 37.1594 38.4047 31.7925C44.7155 26.4256 55.5243 29.196 52.4393 25.5684Z" fill="white"/>
<path d="M465.439 30.5684C462.354 26.9408 454.737 28.3507 448.427 33.7176C442.116 39.0844 439.501 46.3759 442.586 50.0035C445.671 53.6311 445.094 42.1594 451.405 36.7925C457.716 31.4256 468.524 34.196 465.439 30.5684Z" fill="white"/>
</g>
<defs>
<filter id="filter0_d_0_1" x="0" y="0" width="1285" height="199" filterUnits="userSpaceOnUse" color-interpolation-filters="sRGB">
<feFlood flood-opacity="0" result="BackgroundImageFix"/>
<feColorMatrix in="SourceAlpha" type="matrix" values="0 0 0 0 0 0 0 0 0 0 0 0 0 0 0 0 0 0 127 0" result="hardAlpha"/>
<feOffset dy="4"/>
<feGaussianBlur stdDeviation="2"/>
<feComposite in2="hardAlpha" operator="out"/>
<feColorMatrix type="matrix" values="0 0 0 0 0 0 0 0 0 0 0 0 0 0 0 0 0 0 0.25 0"/>
<feBlend mode="normal" in2="BackgroundImageFix" result="effect1_dropShadow_0_1"/>
<feBlend mode="normal" in="SourceGraphic" in2="effect1_dropShadow_0_1" result="shape"/>
</filter>
</defs>
</svg>
