<svg width="23" height="24" viewBox="0 0 23 24" fill="#F75757" xmlns="http://www.w3.org/2000/svg">
<path d="M20 11.25H17.875C17.875 12.175 17.675 13.0375 17.3375 13.8125L18.875 15.35C19.575 14.125 20 12.7375 20 11.25ZM14.975 11.4625C14.975 11.3875 15 11.325 15 11.25V3.75C15 1.675 13.325 0 11.25 0C9.175 0 7.5 1.675 7.5 3.75V3.975L14.975 11.4625ZM1.5875 1.25L0 2.8375L7.5125 10.35V11.25C7.5125 13.325 9.175 15 11.25 15C11.525 15 11.8 14.9625 12.0625 14.9L14.1375 16.975C13.25 17.3875 12.2625 17.625 11.25 17.625C7.8 17.625 4.625 15 4.625 11.25H2.5C2.5 15.5125 5.9 19.0375 10 19.65V23.75H12.5V19.65C13.6375 19.4875 14.7125 19.0875 15.675 18.525L20.9125 23.75L22.5 22.1625L1.5875 1.25Z" fill="inherit"/>
</svg>
