<svg width="25" height="23" viewBox="0 0 25 23" fill="none" xmlns="http://www.w3.org/2000/svg">
<path d="M22.1042 17.2596L24.1875 19.3787H25V17.2596H22.1042ZM22.9062 15.1406L22.9167 4.54536C22.9167 3.36929 21.9792 2.42631 20.8333 2.42631H7.52083L12.9688 7.96762C13.1562 7.92524 13.3438 7.89345 13.5417 7.86167V5.60488L17.7083 9.55691L16.0625 11.1144L21.8333 16.9842C22.4687 16.6345 22.9062 15.9352 22.9062 15.1406ZM2.48958 0L1.15625 1.3456L2.76042 2.97726C2.34375 3.35869 2.08333 3.92024 2.08333 4.54536V15.1406C2.08333 16.3061 3.01042 17.2596 4.16667 17.2596H0V19.3787H18.8854L21.7083 22.25L23.0312 20.9044L2.48958 0ZM7.29167 14.0811C7.61458 12.513 8.25 10.9555 9.44792 9.7794L11.1042 11.464C9.5 11.8667 8.29167 12.7143 7.29167 14.0811Z" fill="#F75757"/>
</svg>
